<svg width="62" height="62" viewBox="0 0 62 62" fill="none" xmlns="http://www.w3.org/2000/svg">
<path d="M12.4414 10.2655C13.8708 4.9308 19.3541 1.76497 24.6888 3.19439L51.7347 10.4413C57.0694 11.8707 60.2352 17.3541 58.8058 22.6888L51.5589 49.7347C50.1294 55.0694 44.6461 58.2352 39.3114 56.8058L12.2655 49.5588C6.93082 48.1294 3.765 42.646 5.19442 37.3114L12.4414 10.2655Z" fill="#7F56D9"/>
<g filter="url(#filter0_b_18032_20082)">
<path d="M0 30C0 24.3995 0 21.5992 1.08993 19.4601C2.04867 17.5785 3.57847 16.0487 5.46009 15.0899C7.59921 14 10.3995 14 16 14H32C37.6005 14 40.4008 14 42.5399 15.0899C44.4215 16.0487 45.9513 17.5785 46.9101 19.4601C48 21.5992 48 24.3995 48 30V46C48 51.6005 48 54.4008 46.9101 56.5399C45.9513 58.4215 44.4215 59.9513 42.5399 60.9101C40.4008 62 37.6005 62 32 62H16C10.3995 62 7.59921 62 5.46009 60.9101C3.57847 59.9513 2.04867 58.4215 1.08993 56.5399C0 54.4008 0 51.6005 0 46V30Z" fill="white" fill-opacity="0.6"/>
<path d="M0.5 30C0.5 27.1915 0.500389 25.1152 0.634581 23.4727C0.768297 21.8361 1.03237 20.6744 1.53544 19.6871C2.44624 17.8996 3.89955 16.4462 5.68709 15.5354C6.67441 15.0324 7.83613 14.7683 9.47274 14.6346C11.1152 14.5004 13.1915 14.5 16 14.5H32C34.8085 14.5 36.8848 14.5004 38.5273 14.6346C40.1639 14.7683 41.3256 15.0324 42.3129 15.5354C44.1004 16.4462 45.5538 17.8996 46.4646 19.6871C46.9676 20.6744 47.2317 21.8361 47.3654 23.4727C47.4996 25.1152 47.5 27.1915 47.5 30V46C47.5 48.8085 47.4996 50.8848 47.3654 52.5273C47.2317 54.1639 46.9676 55.3256 46.4646 56.3129C45.5538 58.1004 44.1004 59.5538 42.3129 60.4646C41.3256 60.9676 40.1639 61.2317 38.5273 61.3654C36.8848 61.4996 34.8085 61.5 32 61.5H16C13.1915 61.5 11.1152 61.4996 9.47274 61.3654C7.83613 61.2317 6.67442 60.9676 5.68709 60.4646C3.89955 59.5538 2.44624 58.1004 1.53544 56.3129C1.03237 55.3256 0.768297 54.1639 0.634581 52.5273C0.500389 50.8848 0.5 48.8085 0.5 46V30Z" stroke="white" stroke-opacity="0.6"/>
<path d="M24 48C29.5228 48 34 43.5228 34 38C34 32.4772 29.5228 28 24 28C18.4772 28 14 32.4772 14 38C14 43.5228 18.4772 48 24 48Z" stroke="white" stroke-width="2" stroke-linecap="round" stroke-linejoin="round"/>
<path d="M24 44C27.3137 44 30 41.3137 30 38C30 34.6863 27.3137 32 24 32C20.6863 32 18 34.6863 18 38C18 41.3137 20.6863 44 24 44Z" stroke="white" stroke-width="2" stroke-linecap="round" stroke-linejoin="round"/>
<path d="M24 40C25.1046 40 26 39.1046 26 38C26 36.8954 25.1046 36 24 36C22.8954 36 22 36.8954 22 38C22 39.1046 22.8954 40 24 40Z" stroke="white" stroke-width="2" stroke-linecap="round" stroke-linejoin="round"/>
</g>
<defs>
<filter id="filter0_b_18032_20082" x="-16" y="-2" width="80" height="80" filterUnits="userSpaceOnUse" color-interpolation-filters="sRGB">
<feFlood flood-opacity="0" result="BackgroundImageFix"/>
<feGaussianBlur in="BackgroundImageFix" stdDeviation="8"/>
<feComposite in2="SourceAlpha" operator="in" result="effect1_backgroundBlur_18032_20082"/>
<feBlend mode="normal" in="SourceGraphic" in2="effect1_backgroundBlur_18032_20082" result="shape"/>
</filter>
</defs>
</svg>
