<svg width="28" height="28" viewBox="0 0 28 28" fill="none" xmlns="http://www.w3.org/2000/svg">
<g clip-path="url(#clip0_18032_20092)">
<path d="M8.74992 13.9999L12.2499 17.4999L19.2499 10.4999M25.6666 13.9999C25.6666 20.4432 20.4432 25.6666 13.9999 25.6666C7.5566 25.6666 2.33325 20.4432 2.33325 13.9999C2.33325 7.5566 7.5566 2.33325 13.9999 2.33325C20.4432 2.33325 25.6666 7.5566 25.6666 13.9999Z" stroke="#7F56D9" stroke-width="2.33333" stroke-linecap="round" stroke-linejoin="round"/>
</g>
<defs>
<clipPath id="clip0_18032_20092">
<path d="M0 14C0 6.26801 6.26801 0 14 0C21.732 0 28 6.26801 28 14C28 21.732 21.732 28 14 28C6.26801 28 0 21.732 0 14Z" fill="white"/>
</clipPath>
</defs>
</svg>
