<svg width="62" height="62" viewBox="0 0 62 62" fill="none" xmlns="http://www.w3.org/2000/svg">
<path d="M12.4414 10.2652C13.8708 4.93055 19.3541 1.76473 24.6888 3.19415L51.7347 10.4411C57.0694 11.8705 60.2352 17.3539 58.8058 22.6885L51.5589 49.7345C50.1294 55.0691 44.6461 58.2349 39.3114 56.8055L12.2655 49.5586C6.93082 48.1292 3.765 42.6458 5.19442 37.3111L12.4414 10.2652Z" fill="#7F56D9"/>
<g filter="url(#filter0_b_18032_20150)">
<path d="M0 30C0 24.3995 0 21.5992 1.08993 19.4601C2.04867 17.5785 3.57847 16.0487 5.46009 15.0899C7.59921 14 10.3995 14 16 14H32C37.6005 14 40.4008 14 42.5399 15.0899C44.4215 16.0487 45.9513 17.5785 46.9101 19.4601C48 21.5992 48 24.3995 48 30V46C48 51.6005 48 54.4008 46.9101 56.5399C45.9513 58.4215 44.4215 59.9513 42.5399 60.9101C40.4008 62 37.6005 62 32 62H16C10.3995 62 7.59921 62 5.46009 60.9101C3.57847 59.9513 2.04867 58.4215 1.08993 56.5399C0 54.4008 0 51.6005 0 46V30Z" fill="white" fill-opacity="0.6"/>
<path d="M0.5 30C0.5 27.1915 0.500389 25.1152 0.634581 23.4727C0.768297 21.8361 1.03237 20.6744 1.53544 19.6871C2.44624 17.8996 3.89955 16.4462 5.68709 15.5354C6.67441 15.0324 7.83613 14.7683 9.47274 14.6346C11.1152 14.5004 13.1915 14.5 16 14.5H32C34.8085 14.5 36.8848 14.5004 38.5273 14.6346C40.1639 14.7683 41.3256 15.0324 42.3129 15.5354C44.1004 16.4462 45.5538 17.8996 46.4646 19.6871C46.9676 20.6744 47.2317 21.8361 47.3654 23.4727C47.4996 25.1152 47.5 27.1915 47.5 30V46C47.5 48.8085 47.4996 50.8848 47.3654 52.5273C47.2317 54.1639 46.9676 55.3256 46.4646 56.3129C45.5538 58.1004 44.1004 59.5538 42.3129 60.4646C41.3256 60.9676 40.1639 61.2317 38.5273 61.3654C36.8848 61.4996 34.8085 61.5 32 61.5H16C13.1915 61.5 11.1152 61.4996 9.47274 61.3654C7.83613 61.2317 6.67442 60.9676 5.68709 60.4646C3.89955 59.5538 2.44624 58.1004 1.53544 56.3129C1.03237 55.3256 0.768297 54.1639 0.634581 52.5273C0.500389 50.8848 0.5 48.8085 0.5 46V30Z" stroke="white" stroke-opacity="0.6"/>
<path d="M16.5 48V43M16.5 33V28M14 30.5H19M14 45.5H19M25 29L23.2658 33.5089C22.9838 34.2421 22.8428 34.6087 22.6235 34.9171C22.4292 35.1904 22.1904 35.4292 21.9171 35.6235C21.6087 35.8428 21.2421 35.9838 20.5089 36.2658L16 38L20.5089 39.7342C21.2421 40.0162 21.6087 40.1572 21.9171 40.3765C22.1904 40.5708 22.4292 40.8096 22.6235 41.0829C22.8428 41.3913 22.9838 41.7579 23.2658 42.4911L25 47L26.7342 42.4911C27.0162 41.7579 27.1572 41.3913 27.3765 41.0829C27.5708 40.8096 27.8096 40.5708 28.0829 40.3765C28.3913 40.1572 28.7579 40.0162 29.4911 39.7342L34 38L29.4911 36.2658C28.7579 35.9838 28.3913 35.8428 28.0829 35.6235C27.8096 35.4292 27.5708 35.1904 27.3765 34.9171C27.1572 34.6087 27.0162 34.2421 26.7342 33.5089L25 29Z" stroke="white" stroke-width="2" stroke-linecap="round" stroke-linejoin="round"/>
</g>
<defs>
<filter id="filter0_b_18032_20150" x="-16" y="-2" width="80" height="80" filterUnits="userSpaceOnUse" color-interpolation-filters="sRGB">
<feFlood flood-opacity="0" result="BackgroundImageFix"/>
<feGaussianBlur in="BackgroundImageFix" stdDeviation="8"/>
<feComposite in2="SourceAlpha" operator="in" result="effect1_backgroundBlur_18032_20150"/>
<feBlend mode="normal" in="SourceGraphic" in2="effect1_backgroundBlur_18032_20150" result="shape"/>
</filter>
</defs>
</svg>
