<svg width="25" height="24" viewBox="0 0 25 24" fill="none" xmlns="http://www.w3.org/2000/svg">
<g clip-path="url(#clip0_18067_66247)">
<path d="M22.9434 0H2.49185C1.51216 0 0.719971 0.773438 0.719971 1.72969V22.2656C0.719971 23.2219 1.51216 24 2.49185 24H22.9434C23.9231 24 24.72 23.2219 24.72 22.2703V1.72969C24.72 0.773438 23.9231 0 22.9434 0ZM7.84028 20.4516H4.27778V8.99531H7.84028V20.4516ZM6.05903 7.43438C4.91528 7.43438 3.99185 6.51094 3.99185 5.37187C3.99185 4.23281 4.91528 3.30937 6.05903 3.30937C7.1981 3.30937 8.12153 4.23281 8.12153 5.37187C8.12153 6.50625 7.1981 7.43438 6.05903 7.43438ZM21.1715 20.4516H17.6137V14.8828C17.6137 13.5562 17.5903 11.8453 15.7622 11.8453C13.9106 11.8453 13.6293 13.2937 13.6293 14.7891V20.4516H10.0762V8.99531H13.4887V10.5609H13.5356C14.009 9.66094 15.1715 8.70938 16.9012 8.70938C20.5059 8.70938 21.1715 11.0813 21.1715 14.1656V20.4516Z" fill="#85888E"/>
</g>
<defs>
<clipPath id="clip0_18067_66247">
<rect width="24" height="24" fill="white" transform="translate(0.719971)"/>
</clipPath>
</defs>
</svg>
