<svg width="149" height="145" viewBox="0 0 149 145" fill="none" xmlns="http://www.w3.org/2000/svg">
<path opacity="0.09" d="M74.952 25.1045C59.2388 25.1045 37.9381 14.655 27.4976 25.1045C17.0571 35.554 27.4976 56.8889 27.4976 72.6262C27.4976 88.3634 17.0598 109.69 27.4976 120.148C37.9355 130.605 59.2388 120.148 74.952 120.148C90.6652 120.148 111.969 130.597 122.409 120.148C132.85 109.698 122.409 88.3634 122.409 72.6262C122.409 56.8889 132.844 35.5618 122.409 25.1045C111.974 14.6472 90.6679 25.1045 74.952 25.1045Z" stroke="#AC2FE7" stroke-opacity="0.28" stroke-width="1.18" stroke-miterlimit="10"/>
<path opacity="0.18" d="M74.9547 22.9189C59.3464 22.9189 39.5593 16.126 29.048 26.6569C18.5367 37.1878 25.3099 57.0018 25.3099 72.6313C25.3099 88.2608 18.5288 108.075 29.0428 118.601C39.5567 129.126 59.3464 122.338 74.9495 122.338C90.5525 122.338 110.347 129.131 120.856 118.601C131.365 108.07 124.605 88.2608 124.605 72.6313C124.605 57.0018 131.388 37.1878 120.872 26.6621C110.355 16.1365 90.5656 22.9189 74.9547 22.9189Z" stroke="#AC2FE7" stroke-opacity="0.28" stroke-width="1.43" stroke-miterlimit="10"/>
<path opacity="0.27" d="M74.9546 20.7335C59.4513 20.7335 41.1856 17.5997 30.5878 28.2041C19.9899 38.8086 23.1273 57.1069 23.1273 72.6314C23.1273 88.1558 19.9977 106.454 30.5878 117.059C41.1778 127.663 59.4434 124.529 74.9546 124.529C90.4658 124.529 108.734 127.663 119.324 117.059C129.914 106.454 126.785 88.1637 126.785 72.6314C126.785 57.0991 129.914 38.8086 119.324 28.2041C108.734 17.5997 90.458 20.7335 74.9546 20.7335Z" stroke="#AC2FE7" stroke-opacity="0.28" stroke-width="1.69" stroke-miterlimit="10"/>
<path opacity="0.36" d="M74.9552 18.5452C59.5568 18.5452 42.7969 19.0705 32.1308 29.7485C21.4647 40.4265 20.9453 57.2118 20.9453 72.6312C20.9453 88.0506 21.47 104.833 32.1308 115.514C42.7917 126.195 59.5489 126.717 74.9552 126.717C90.3615 126.717 107.116 126.192 117.78 115.514C128.443 104.836 128.968 88.0506 128.968 72.6312C128.968 57.2118 128.443 40.4291 117.78 29.7485C107.116 19.0679 90.3536 18.5452 74.9552 18.5452Z" stroke="#AC2FE7" stroke-opacity="0.28" stroke-width="1.94" stroke-miterlimit="10"/>
<path opacity="0.45" d="M74.9548 16.3597C59.6639 16.3597 44.415 20.5416 33.6755 31.2958C22.936 42.05 18.7598 57.317 18.7598 72.6313C18.7598 87.9456 22.936 103.213 33.6755 113.967C44.415 124.721 59.6639 128.903 74.9548 128.903C90.2457 128.903 105.497 124.721 116.237 113.967C126.976 103.213 131.163 87.9456 131.163 72.6313C131.163 57.317 126.966 42.05 116.237 31.2958C105.508 20.5416 90.2404 16.3597 74.9548 16.3597Z" stroke="#AC2FE7" stroke-opacity="0.28" stroke-width="2.19" stroke-miterlimit="10"/>
<path opacity="0.55" d="M74.9537 14.1851C59.7678 14.1851 46.0325 22.013 35.2195 32.8354C24.4065 43.6579 16.5762 57.4224 16.5762 72.6316C16.5762 87.8409 24.396 101.592 35.2195 112.428C46.043 123.263 59.7678 131.097 74.9537 131.097C90.1397 131.097 103.88 123.25 114.691 112.428C125.501 101.605 133.334 87.8461 133.334 72.6369C133.334 57.4276 125.504 43.671 114.691 32.8354C103.878 21.9998 90.1423 14.1851 74.9537 14.1851Z" stroke="#AC2FE7" stroke-opacity="0.28" stroke-width="2.45" stroke-miterlimit="10"/>
<path opacity="0.64" d="M74.9553 11.9863C59.8743 11.9863 47.6526 23.4839 36.7636 34.3878C25.8745 45.2917 14.3926 57.5274 14.3926 72.6315C14.3926 87.7357 25.8745 99.974 36.7636 110.875C47.6526 121.777 59.8743 133.277 74.9553 133.277C90.0363 133.277 102.261 121.779 113.15 110.875C124.039 99.9714 135.518 87.7357 135.518 72.6315C135.518 57.5274 124.036 45.289 113.15 34.3878C102.263 23.4865 90.0389 11.9863 74.9553 11.9863Z" stroke="#AC2FE7" stroke-opacity="0.28" stroke-width="2.7" stroke-miterlimit="10"/>
<path opacity="0.73" d="M74.9542 9.8009C59.9782 9.8009 49.2701 24.955 38.3076 35.9324C27.3451 46.9099 12.209 57.6351 12.209 72.6316C12.209 87.6281 27.3451 98.3533 38.3076 109.331C49.2701 120.308 59.9782 135.462 74.9542 135.462C89.9303 135.462 100.641 120.308 111.604 109.331C122.566 98.3533 137.702 87.6281 137.702 72.6316C137.702 57.6351 122.566 46.9099 111.604 35.9324C100.641 24.955 89.9329 9.8009 74.9542 9.8009Z" stroke="#AC2FE7" stroke-opacity="0.28" stroke-width="2.95" stroke-miterlimit="10"/>
<path opacity="0.82" d="M74.9552 7.61743C60.0735 7.61743 50.8922 26.428 39.851 37.479C28.8097 48.53 10.0273 57.7396 10.0273 72.631C10.0273 87.5224 28.815 96.732 39.851 107.783C50.8869 118.834 60.0735 137.645 74.9552 137.645C89.8368 137.645 99.0234 118.829 110.059 107.778C121.095 96.7268 139.886 87.5172 139.886 72.6258C139.886 57.7344 121.098 48.5248 110.059 37.4738C99.0207 26.4228 89.8289 7.61743 74.9552 7.61743Z" stroke="#AC2FE7" stroke-opacity="0.28" stroke-width="3.21" stroke-miterlimit="10"/>
<path opacity="0.91" d="M74.9548 5.427C60.1885 5.427 52.5077 27.8994 41.3957 39.0265C30.2836 50.1537 7.8418 57.845 7.8418 72.6313C7.8418 87.4177 30.2836 95.1116 41.3957 106.236C52.5077 117.361 60.1885 139.836 74.9548 139.836C89.721 139.836 97.4044 117.363 108.516 106.236C119.629 95.109 142.068 87.4177 142.068 72.6313C142.068 57.845 119.621 50.1511 108.516 39.0265C97.4123 27.902 89.7157 5.427 74.9548 5.427Z" stroke="#AC2FE7" stroke-opacity="0.28" stroke-width="3.46" stroke-miterlimit="10"/>
<path d="M106.97 104.692C118.156 93.4908 144.252 87.3125 144.252 72.6444C144.252 57.9763 118.156 51.7849 106.97 40.5973C95.7848 29.4097 89.615 3.2677 74.9668 3.2677C60.3186 3.2677 54.1383 29.3966 42.9633 40.5973C31.7883 51.798 5.6582 57.95 5.6582 72.6313C5.6582 87.3125 31.7411 93.4908 42.9371 104.692C54.133 115.892 60.2924 142.021 74.9537 142.021C89.615 142.021 95.7848 115.892 106.97 104.692Z" stroke="#AC2FE7" stroke-opacity="0.28" stroke-width="3.71" stroke-miterlimit="10"/>
</svg>
